<?xml version="1.0" encoding="utf-8"?>
<!-- Generator: Adobe Illustrator 18.0.0, SVG Export Plug-In . SVG Version: 6.00 Build 0)  -->
<!DOCTYPE svg PUBLIC "-//W3C//DTD SVG 1.1//EN" "http://www.w3.org/Graphics/SVG/1.1/DTD/svg11.dtd">
<svg version="1.1" xmlns="http://www.w3.org/2000/svg" xmlns:xlink="http://www.w3.org/1999/xlink" x="0px" y="0px"
	 viewBox="0 0 1980 1080" enable-background="new 0 0 1980 1080" xml:space="preserve">
<g id="Layer_7">
</g>
<g id="Layer_6">
</g>
<g id="Layer_5">
</g>
<g id="Layer_2">
</g>
<g id="Layer_4">
</g>
<g id="Layer_9">
</g>
<g id="Layer_3">
</g>
<g id="Layer_8">
</g>
<g id="Layer_10">
	<g opacity="0.21">
		<rect x="-1" y="0.324" fill="#D5F3FF" width="1981" height="1080"/>
		<path fill="#FFFFFF" d="M0,523.591c0,0,861.097-31.498,1356.072-221.989c0,0,343.401,293.985,623.928,323.984V1080H0V523.591z"/>
		<path fill="#C8E8F4" d="M1980,789c0,0-233.599-146.957-294.5-200c-46.5-40.5-83.46-49.506-83.46-49.506s-3.661-1.067-4.287-1.072
			c-0.804-0.007-1.545,0.96-1.753,1.578c0,0-38.393,33.388-57.818,41.872c0,0-105.093,63.062-252.083,103.328
			c-146.99,40.266-313.526,159.109-313.526,159.109L1656.701,1080H1980V789z"/>
		<path fill="#A0D4E8" d="M1593.785,541.901c0,0-8.495,208.429,41.384,402.401c49.878,193.972-454.266-219.918-454.266-219.918
			s287.257-98.246,357.28-142.511C1538.182,581.872,1578.901,555.912,1593.785,541.901z"/>
		<g>
			<path fill="#C8E8F4" d="M0,518.167l160.333-56.583c0,0,134.218-52.619,180-89.958c4.357-3.554,9.672-10.23,12.951-12.615
				c4.14-3.011,17.049,5.969,17.049,5.969l84,54.01c0,0,152.667,117.339,187.333,132.005c34.667,14.667,246,215.169,246,215.169
				L715.667,946H0V518.167z"/>
			<path fill="#9CD4E8" d="M351.217,360.783c0,0-8.594,235.768,41.08,352.805S480.105,947,480.105,947H-1V518l161.083-56.417
				C160.083,461.583,311.297,405.701,351.217,360.783z"/>
		</g>
		<g>
			<path fill="#6BC0DB" d="M301.667,766.831l504-317.915l2.984-2.173c0,0,1.569-1.548,3.138,0.021
				c0,0,588.643,294.164,801.319,362.051L1980,943.537V1080H0V931L301.667,766.831z"/>
			<path fill="#C8E8F4" d="M813.824,448.135c0,0-25.658,282.86,146.001,630.98L1979.5,1080V944l-366.392-135.186
				C1613.108,808.814,1171.058,620.375,813.824,448.135z"/>
		</g>
		<g>
			<path fill="#39ABCF" d="M210,697c0,0,9.333-56.667,4-106c0,0,60.667,99.333,74,140.667C301.333,773,210,697,210,697z"/>
			<path fill="#39AAD1" d="M485.667,798.333c0,0,20-154.667,6.667-190.667c0,0,102,150.667,105.333,239.333
				c3.333,88.667-123.333,0-123.333,0L485.667,798.333z"/>
			<path fill="#39AAD1" d="M1457.667,1051c0,0,44.667-115.333,4-350.667c0,0,140.7,138.658,188.033,379.991L1457.667,1051z"/>
			<path fill="#39AAD1" d="M1217,983c0,0,28.667-91.333,11.333-139.333c0,0,49.333,54.667,69.333,158.667S1217,983,1217,983z"/>
		</g>
		<path fill="#FFFFFF" d="M0,610.171c0,0,412.422,173.816,552.333,211.414c55.979,15.044,208.552,66.062,264.477,74.041
			c703.855,100.417,834.835,84.79,1163.189,164.041V1080L0,1080.324V610.171z"/>
		<g>
			<path fill="#0795C3" d="M255,1080c0,0,73-337,32-540c0,0,172,259,255,540H255z"/>
			<path fill="#0795C3" d="M972,1080c0,0,29.505-136.209,12.934-218.258c0,0,69.519,104.683,103.066,218.258H972z"/>
		</g>
		<g>
			<polygon fill="#6BC0DB" points="555,608.5 566.5,564.5 574.5,598 			"/>
			<polygon fill="#6BC0DB" points="671.5,540 684.5,489.5 693.5,526 			"/>
			<polygon fill="#6BC0DB" points="699.5,521 713,470.5 723.5,511 			"/>
			<polygon fill="#C8E8F4" points="1059.5,571.5 1073.5,520 1094.5,599.5 			"/>
			<polygon fill="#C8E8F4" points="1112.5,599.5 1123.5,573 1139.5,612.5 			"/>
			<polygon fill="#C8E8F4" points="1157,618 1164.5,599.5 1177,630.5 			"/>
			<polygon fill="#C8E8F4" points="1378,713 1395.5,698.5 1399,724 			"/>
			<polygon fill="#C8E8F4" points="1752.5,643 1765,632 1765,655 			"/>
			<polygon fill="#C8E8F4" points="1794.5,680.5 1809.5,637.5 1824,703 			"/>
			<path fill="#C8E8F4" d="M1854,711.25l8-18.25c0,0,13,35.5,11.5,34.5S1854,711.25,1854,711.25z"/>
			<path fill="#9CD4E8" d="M1521.5,599.5c-1.5-2.5-6-24-6-24L1507,603L1521.5,599.5z"/>
			<polygon fill="#9CD4E8" points="1461,630 1461,599 1440.5,636 			"/>
		</g>
	</g>
</g>
</svg>
